<?xml version="1.0" encoding="utf-8"?>
<!-- Generator: Adobe Illustrator 25.2.3, SVG Export Plug-In . SVG Version: 6.00 Build 0)  -->
<svg version="1.1" id="andres_sierra_xA0_Imagen_1_"
	 xmlns="http://www.w3.org/2000/svg" xmlns:xlink="http://www.w3.org/1999/xlink" x="0px" y="0px" height='100%' viewBox="0 0 1920 1920"
	 style="enable-background:new 0 0 1920 1920;" xml:space="preserve">
<style type="text/css">
	.st0{clip-path:url(#SVGID_2_);}
	.st1{fill:none;stroke:whitesmoke;stroke-width:17;stroke-miterlimit:10;}
	.st2{fill:whitesmoke;}
</style>
<g>
	<g>
		<defs>
			<path id="SVGID_1_" d="M546.44,1275.03c39.05,54.55,89.29,100.56,150.79,138.12c39.1,23.88,77.68,40.6,115.72,50.12
				c38.02,9.53,73.58,12.33,106.69,8.42c33.05-3.91,63.04-14.38,89.89-31.42c26.83-17.04,48.79-39.52,65.86-67.48l1.46-2.4
				c15.6-25.54,25.22-51.18,28.87-76.91c3.64-25.72-0.03-52.89-11.04-81.55c-11.02-28.65-30.51-60-58.45-94.07
				c-27.99-34.07-64.9-72.77-110.77-116.15c-45.58-42.07-82.49-80.79-110.75-116.14c-28.31-35.37-48.45-68.76-60.47-100.22
				c-12.05-31.46-16.31-61.76-12.77-90.83c3.5-29.11,14.28-58.42,32.32-87.96l1.46-2.39c18.03-29.53,41.77-53.13,71.2-70.8
				c29.4-17.65,62.25-28.83,98.56-33.54c36.29-4.68,74.42-2.49,114.4,6.57c39.93,9.04,79.89,25.76,119.82,50.15
				c4.34,2.65,8.27,5.6,12.5,8.33L989.7,142.2h-38.38l-475.83,995.45C492.91,1187.33,516.48,1233.19,546.44,1275.03z"/>
		</defs>
		<clipPath id="SVGID_2_">
			<use xlink:href="#SVGID_1_"  style="overflow:visible;"/>
		</clipPath>
		<g class="st0">
			<line class="st1" x1="207.2" y1="2003.14" x2="205.2" y2="-139.05"/>
			<line class="st1" x1="245.64" y1="1996.87" x2="243.64" y2="-145.32"/>
			<line class="st1" x1="284.07" y1="1990.59" x2="282.08" y2="-151.6"/>
			<line class="st1" x1="322.51" y1="1984.32" x2="320.52" y2="-157.87"/>
			<line class="st1" x1="360.95" y1="1978.04" x2="358.95" y2="-164.15"/>
			<line class="st1" x1="399.39" y1="1971.77" x2="397.39" y2="-170.42"/>
			<line class="st1" x1="437.83" y1="1965.49" x2="435.83" y2="-176.7"/>
			<line class="st1" x1="476.27" y1="1959.21" x2="474.27" y2="-182.98"/>
			<line class="st1" x1="514.71" y1="1952.94" x2="512.71" y2="-189.25"/>
			<line class="st1" x1="553.15" y1="1946.66" x2="551.15" y2="-195.53"/>
			<line class="st1" x1="591.58" y1="1940.39" x2="589.59" y2="-201.8"/>
			<line class="st1" x1="630.02" y1="1934.11" x2="628.03" y2="-208.08"/>
			<line class="st1" x1="668.46" y1="1927.83" x2="666.46" y2="-214.36"/>
			<line class="st1" x1="706.9" y1="1921.56" x2="704.9" y2="-220.63"/>
			<line class="st1" x1="745.34" y1="1915.28" x2="743.34" y2="-226.91"/>
			<line class="st1" x1="783.78" y1="1909.01" x2="781.78" y2="-233.18"/>
			<line class="st1" x1="822.22" y1="1902.73" x2="820.22" y2="-239.46"/>
			<line class="st1" x1="860.65" y1="1896.45" x2="858.66" y2="-245.74"/>
			<line class="st1" x1="899.09" y1="1890.18" x2="897.1" y2="-252.01"/>
			<line class="st1" x1="937.53" y1="1883.9" x2="935.53" y2="-258.29"/>
			<line class="st1" x1="975.97" y1="1877.63" x2="973.97" y2="-264.56"/>
			<line class="st1" x1="1014.41" y1="1871.35" x2="1012.41" y2="-270.84"/>
			<line class="st1" x1="1052.85" y1="1865.07" x2="1050.85" y2="-277.12"/>
			<line class="st1" x1="1091.29" y1="1858.8" x2="1089.29" y2="-283.39"/>
			<line class="st1" x1="1129.72" y1="1852.52" x2="1127.73" y2="-289.67"/>
			<line class="st1" x1="1168.16" y1="1846.25" x2="1166.17" y2="-295.94"/>
			<line class="st1" x1="1206.6" y1="1839.97" x2="1204.61" y2="-302.22"/>
			<line class="st1" x1="1245.04" y1="1833.7" x2="1243.04" y2="-308.5"/>
			<line class="st1" x1="1283.48" y1="1827.42" x2="1281.48" y2="-314.77"/>
			<line class="st1" x1="1321.92" y1="1821.14" x2="1319.92" y2="-321.05"/>
			<line class="st1" x1="1360.36" y1="1814.87" x2="1358.36" y2="-327.32"/>
			<line class="st1" x1="1398.8" y1="1808.59" x2="1396.8" y2="-333.6"/>
			<line class="st1" x1="1437.23" y1="1802.32" x2="1435.24" y2="-339.87"/>
			<line class="st1" x1="1475.67" y1="1796.04" x2="1473.68" y2="-346.15"/>
			<line class="st1" x1="1514.11" y1="1789.76" x2="1512.11" y2="-352.43"/>
			<line class="st1" x1="1552.55" y1="1783.49" x2="1550.55" y2="-358.7"/>
			<line class="st1" x1="1590.99" y1="1777.21" x2="1588.99" y2="-364.98"/>
			<line class="st1" x1="1629.43" y1="1770.94" x2="1627.43" y2="-371.25"/>
			<line class="st1" x1="1667.87" y1="1764.66" x2="1665.87" y2="-377.53"/>
			<line class="st1" x1="1706.31" y1="1758.38" x2="1704.31" y2="-383.81"/>
		</g>
	</g>
	<path class="st2" d="M1217.28,618.3c-17.27-13.94-35.37-27.24-55.07-39.28c-36.75-22.44-73.23-37.59-109.5-45.5
		c-36.3-7.91-70.58-9.65-102.84-5.26c-32.29,4.4-61.18,14.43-86.64,30.13c-25.47,15.68-45.78,35.91-60.89,60.65l-1.46,2.4
		c-15.61,25.56-25.13,50.98-28.5,76.31c-3.42,25.32,0.69,52.22,12.35,80.72c11.64,28.48,30.85,59.41,57.65,92.75
		c26.75,33.34,62.92,71.06,108.5,113.12c47.44,44.33,85.49,84.83,114.08,121.46c28.59,36.65,48.78,70.89,60.56,102.75
		c11.8,31.86,15.53,62.1,11.22,90.7c-4.32,28.61-15.25,57.29-32.8,86.02l-1.46,2.39c-19.02,31.14-43.43,56.27-73.16,75.35
		c-29.75,19.11-63.12,31.09-100.05,35.92c-36.94,4.85-76.72,2.22-119.31-7.9c-42.6-10.14-85.87-28.6-129.77-55.4
		c-64.66-39.49-117.69-87.77-159.03-144.81c-25.79-35.56-46.74-74.14-63.89-115.08l-186.77,390.73h46.46h1305.08h48.5L1217.28,618.3
		z"/>
</g>
<g>
	<g>
		<path class="st2" d="M322.71,1629.77c16.76,0,30.53,8.5,37.78,23.26v-19.75H396v133.05h-35.27v-18.51
			c-8,13.26-19.51,22.77-40.51,22.77c-28.78,0-55.29-25.02-55.29-67.28C264.93,1656.03,288.45,1629.77,322.71,1629.77z
			 M330.71,1740.07c16.01,0,29.53-11.01,29.53-38.27c0-25.76-11.02-40.52-29.53-40.52c-17.25,0-28.75,13-28.75,39.01
			C301.95,1729.06,314.46,1740.07,330.71,1740.07z"/>
		<path class="st2" d="M462.61,1633.28v19.25c10.24-15.51,23.01-22.76,39.77-22.76c29,0,47.27,14.26,47.27,46.51v90.04h-37.02
			v-80.79c0-18.5-7.49-25.76-22.26-25.76c-12.99,0-26.51,5.75-26.51,35.02v71.53h-36v-133.05H462.61z"/>
		<path class="st2" d="M631.01,1629.77c15.01,0,28.53,7.01,36.53,20.01v-63.27h36.76v179.82h-35.27v-18.51
			c-8,13.26-19.51,22.77-40.51,22.77c-28.78,0-55.29-25.02-55.29-67.28C573.23,1656.03,596.75,1629.77,631.01,1629.77z
			 M639.01,1740.07c16.01,0,29.53-11.01,29.53-38.27c0-25.76-11.02-40.52-29.53-40.52c-17.25,0-28.75,13-28.75,39.01
			C610.26,1729.06,622.76,1740.07,639.01,1740.07z"/>
		<path class="st2" d="M769.91,1633.02v23.27c11.51-20.76,23.26-26.51,39.77-26.51c2,0,2.99,0,4.5,0.24v37.02
			c-4.01-0.5-7.01-0.75-10.26-0.75c-23.01,0-32.01,11.01-32.01,37.77v62.28H735.4v-133.31H769.91z"/>
		<path class="st2" d="M887.01,1629.52c40.26,0,65.02,24.26,63.52,80.03h-90.54c0.26,18.51,10.02,32.01,29.53,32.01
			c9.25,0,19.24-3.25,23.5-13.76h37.27c-2.26,23.27-23.77,43.02-61.03,43.02c-31.02,0-65.27-18.26-65.27-70.02
			C823.98,1656.03,850.5,1629.52,887.01,1629.52z M913.26,1686.04c-0.73-16.51-9.75-27-26.01-27c-15.25,0-24.01,10.25-26.25,27
			H913.26z M898.52,1578.25h40.26l-37.76,36.77h-25.76L898.52,1578.25z"/>
	</g>
	<path class="st2" d="M1167.05,1585v32.77h-36.51V1585H1167.05z M1167.05,1633.02v133.31h-36.51v-133.31H1167.05z"/>
	<path class="st2" d="M1253.37,1629.52c40.26,0,65.02,24.26,63.52,80.03h-90.54c0.26,18.51,10.02,32.01,29.53,32.01
		c9.25,0,19.24-3.25,23.5-13.76h37.27c-2.26,23.27-23.77,43.02-61.03,43.02c-31.02,0-65.27-18.26-65.27-70.02
		C1190.34,1656.03,1216.86,1629.52,1253.37,1629.52z M1279.62,1686.04c-0.73-16.51-9.75-27-26.01-27c-15.25,0-24.01,10.25-26.25,27
		H1279.62z"/>
	<path class="st2" d="M1374.23,1633.02v23.27c11.51-20.76,23.26-26.51,39.77-26.51c2,0,2.99,0,4.5,0.24v37.02
		c-3.99-0.5-7.01-0.75-10.24-0.75c-23.01,0-32.01,11.01-32.01,37.77v62.28h-36.53v-133.31H1374.23z"/>
	<path class="st2" d="M1473.08,1633.02v23.27c11.51-20.76,23.26-26.51,39.77-26.51c2,0,2.99,0,4.5,0.24v37.02
		c-4.01-0.5-7.01-0.75-10.26-0.75c-23.01,0-32.01,11.01-32.01,37.77v62.28h-36.51v-133.31H1473.08z"/>
	<path class="st2" d="M1587.17,1629.77c16.76,0,30.53,8.5,37.78,23.26v-19.75h35.52v133.05h-35.27v-18.51
		c-8,13.26-19.51,22.77-40.51,22.77c-28.78,0-55.29-25.02-55.29-67.28C1529.39,1656.03,1552.91,1629.77,1587.17,1629.77z
		 M1595.17,1740.07c16.01,0,29.53-11.01,29.53-38.27c0-25.76-11.02-40.52-29.53-40.52c-17.25,0-28.75,13-28.75,39.01
		C1566.42,1729.06,1578.92,1740.07,1595.17,1740.07z"/>
	<g>
		<path class="st2" d="M1005.8,1712.81l20.89,5.28v-36.07l-7.15-1.73c-15.25-3.5-19.24-6.26-19.24-12.51
			c0-4.74,3.75-11.25,20.51-11.25c2.17,0,3.99,0.32,5.89,0.58v-27.51c-2.13-0.11-4.14-0.32-6.39-0.32
			c-39.02,0-56.02,24.01-56.02,45.02C964.27,1697.3,977.04,1705.55,1005.8,1712.81z"/>
		<path class="st2" d="M1026.69,1743.18c-0.58,0.02-1.03,0.14-1.63,0.14c-21.53,0-26.51-7.5-28.02-19.75h-36.76
			c0.49,34.01,26.76,47.27,62.03,47.27c1.57,0,2.88-0.21,4.38-0.26V1743.18z"/>
	</g>
	<g>
		<path class="st2" d="M1047.55,1657.11c9.46,1.29,15.58,5.85,16.62,16.68h36.27c-2.81-28.85-20.78-42.57-52.89-44.19V1657.11z"/>
		<path class="st2" d="M1063.16,1685.8l-15.62-3.77v36.07l1.87,0.47c14.74,4,18,6,18,13.25c0,6.93-7.66,11-19.88,11.36v27.39
			c38.55-1.36,56.39-19.72,56.39-44.76C1103.93,1702.8,1086.67,1691.55,1063.16,1685.8z"/>
	</g>
</g>
</svg>
