<?xml version="1.0" encoding="utf-8"?>
<!-- Generator: Adobe Illustrator 25.2.3, SVG Export Plug-In . SVG Version: 6.00 Build 0)  -->
<svg version="1.1" id="andres_sierra_xA0_Imagen_1_"
	 xmlns="http://www.w3.org/2000/svg" xmlns:xlink="http://www.w3.org/1999/xlink" x="0px" y="0px" viewBox="0 0 1920 1920"
	 style="enable-background:new 0 0 1920 1920;" xml:space="preserve">
	 <style type="text/css">
	path{fill:whitesmoke;}
</style>
<g>
	<path d="M1314.66,935.2c-10.72,2.72-20.87,5.68-31.18,7.78c-6.81,1.39-11.76,4.43-14.39,10.88c-1.51,3.7-2.78,7.48-4.21,11.21
		c-1.98,5.16-3.68,10.46-6.2,15.35c-0.78,1.52-3.74,2.26-5.84,2.67c-1.67,0.33-3.54-0.39-6.07-0.76c-0.67,5.74-1.34,11.13-1.9,16.53
		c-0.47,4.47-0.93,8.95-1.17,13.44c-1.59,29.73-16.58,51.47-39.82,68.9c-36.61,27.46-78.08,38.83-123.2,38.24
		c-13.27-0.17-26.74-0.8-39.73-3.27c-34.28-6.5-58-27.2-72.56-58.36c-9.72-20.79-13.66-42.8-10.07-65.75
		c0.56-3.56-0.1-5.21-3.85-6.45c-2.96-0.98-5.74-3.48-7.81-5.96c-2.57-3.09-5.49-4.39-9.34-4.81c-25.67-2.8-50.88-0.02-75.84,6.03
		c-2.28,0.55-3.85,1.21-3.58,4.24c1.15,12.79-5.22,21.44-15.88,27.81c1.35,7.02,3.3,14.13,4.02,21.36
		c3.91,39.07-7.07,72.77-36.76,99.48c-14.89,13.4-33.11,19.79-52.26,23.44c-27.12,5.16-54.51,7.37-82.04,3.3
		c-29.73-4.39-56.65-15.75-80.94-33.44c-16.13-11.74-25.56-27.75-30.21-46.87c-2.32-9.55-4.61-19.11-6.94-28.65
		c-0.39-1.59-0.89-3.14-1.48-5.17c-2.04,0.55-3.76,1-5.48,1.47c-3.59,0.99-5.81-0.14-7.59-3.64c-4.01-7.88-8.45-15.54-12.8-23.24
		c-3.45-6.1-8.83-8.81-15.77-8.64c-10.43,0.25-10.76-0.87-12.49-11.8c-1.35-8.53-1.49-17.25-2.11-25.89
		c-0.54-7.48,2.99-11.15,11.25-12.3c9.17-1.28,18.31-2.81,26.68-4.11c-1.97-5.46-3.7-10.34-5.49-15.2
		c-5.17-14.03-9.46-28.46-15.76-41.96c-7.9-16.92-10.51-34.98-14.41-52.84c-7.27-33.32-14.61-66.63-22.15-99.9
		c-6.29-27.76-12.81-55.46-19.45-83.14c-2.08-8.66-5.35-17.04-7.25-25.73c-2.7-12.34-2.98-24.8,1.31-37.25
		c-7.06-3.31-7.58-10.37-8.79-16.42c-4.74-23.63-3.51-47.03,4.47-69.79c-4.59-7.62-6.71-15.54-4-24.42
		c1.21-3.96,1.81-8.12,2.62-12.2c2.52-12.74,7.49-24.48,14.93-35.53c-5.04-1.81-4.52-5.46-3.35-9.13
		c3.82-12.01,10.78-22.05,19.5-31.03c3.46-3.56,6.89-7.28,9.67-11.37c17.64-25.9,42.71-42.55,70.66-54.61
		c26.56-11.47,53.74-21.7,81.18-30.87c43.54-14.55,85.6-32.4,127.1-51.9c36.13-16.97,73.51-30.56,113.19-37
		c26.64-4.32,53.25-3.48,79.62,1.09c24.27,4.2,48.24,10.13,72.45,14.76c15.36,2.94,30.85,5.57,46.4,7.07
		c12.04,1.16,24.27,0.32,36.42,0.46c14.43,0.17,28.45,2.74,42.21,7.12c23.59,7.52,42.11,22.02,56.64,41.63
		c12.49,16.86,16.19,35.86,11.36,56.39c-0.18,0.78-0.23,1.6-0.37,2.64c4.6,1.22,9.32,1.82,13.46,3.68
		c43.31,19.37,81.33,45.54,107.74,86.01c10.51,16.11,15.25,34.42,16.95,53.35c1.21,13.42,0.57,26.99,1.54,40.44
		c1.32,18.42,3.39,36.79,5.1,55.18c0.15,1.59,0.02,3.21,0.02,6.26c-3.12-2.17-5.83-3.3-7.44-5.31c-5.49-6.87-10.45-14.16-15.86-21.1
		c-8.42-10.79-17.05-21.42-26.27-31.62c11.4,20.57,20.43,42.63,38.47,58.91c-8.18-3.65-14.62-9.42-20.5-15.92
		c-2.03-2.24-3.99-6.22-7.53-3.31c-3.26,2.69-0.6,5.96,1.45,8.27c9.21,10.39,18.7,20.47,32.54,24.8c0.75,0.24,1.44,0.7,2.14,1.05
		c-0.18,0.49-0.21,0.97-0.42,1.08c-6.93,3.49-5.52,9.67-4.88,15.48c2.53,23.31,6.03,46.56,7.5,69.93c1.53,24.4,1.85,48.94,1.4,73.39
		c-0.45,24.47-2.35,48.97-8.38,72.84c-5.08,20.14-5.63,40.79-8.06,61.24c-1.96,16.51-4.75,32.93-7.34,49.36
		c-0.43,2.76-1.47,5.49-2.61,8.06c-2.92,6.56-8.53,8.51-14.79,4.94c-9.83-5.6-15.64-13.79-15.41-25.55
		C1314.69,938.58,1314.66,936.6,1314.66,935.2z M943.14,945.78c20.19-28.77,50.85-38.19,81.77-47.35
		c-11.88,1.65-23.68,3.62-35.45,5.75c-1.19,0.21-2.26,1.29-3.29,2.09c-6.32,4.94-13.82,4.2-19.21-1.68
		c-1.49-1.62-3.46-2.95-5.46-3.91c-7.93-3.81-10.09-6.11-9.14-11.82c1.29-7.71,2.67-15.47,4.93-22.93c0.87-2.88,3.89-6.2,6.64-7.06
		c2.08-0.66,5.29,2.26,8.53,3.84c2.23-2.13,5.23-5.25,8.51-8.06c6.68-5.71,11.3-4.19,13.54,4.51c4.68-1.02,9.51-1.61,14.04-3.13
		c33.5-11.26,67.79-18.58,103.09-20.52c10.91-0.6,22.07-0.76,32.82,0.85c21.02,3.16,40.78,10.84,60.07,19.7
		c7.41,3.4,8.46,5.12,5.93,12.54c3.71,1.76,7.58,3.3,11.14,5.36c4.8,2.78,6.56,6.69,4.85,10.26c-2.15,4.5-6.17,4.74-10.3,3.74
		c-7.6-1.83-15.13-3.93-22.7-5.86c-8.63-2.2-17.29-4.33-26.06-6.52c-0.79,7.97-2.37,9.16-9.36,7.95c-2.95-0.51-5.88-1.45-8.84-1.6
		c-11.1-0.55-22.37-2.2-33.28-0.91c-13.42,1.58-26.55,5.67-39.81,8.68c1.04,0.45,2.01,0.34,2.98,0.29c18.79-1,37.61-3.23,56.36-2.74
		c40.97,1.06,81.91,3.18,122.83,5.56c11.08,0.64,22.77-2.55,33.29,3.7c0.32,0.19,0.98-0.08,1.44-0.24
		c6.42-2.18,12.84-4.37,19.7-6.71c0.79-15.92-1.09-31.85-5.48-47.52c-12.87-45.89-27.84-91.05-45.79-135.23
		c-7.92-19.48-13.34-40.07-27.84-57.3c17.97,9.32,35.19,18.02,54.49,24.07c-1.12-5.86-5.46-6.53-8.82-8.24
		c-14.38-7.3-28.92-14.3-43.13-21.91c-15.65-8.38-27.03-20.89-36.18-36.23c-13.26-22.23-22.65-45.96-31.13-70.22
		c-7.55-21.59-14.71-43.26-16.13-66.3c-0.39-6.41-0.06-12.87-0.06-20.13c-7.08,3.3-13.84,6.06-20.23,9.51
		c-33.09,17.89-65.89,36.35-99.22,53.79c-14.25,7.46-29.45,13.19-44.39,19.25c-27.28,11.06-55.2,9.79-82.96,2.49
		c-21.26-5.59-39.57-17.48-56.92-30.54c-16.01-12.05-27.3-27.92-31.98-47.59c-3.19-13.4-4.84-27.16-7.39-40.72
		c-2.1-11.13-2.25-22.24,0.3-33.24c1.95-8.42,3.98-16.93,7.11-24.95c9.18-23.54,22.57-44.29,43.51-59.13
		c10.17-7.21,21.1-13.36,31.69-19.97c1.3-0.81,2.66-1.52,3.99-2.28c-8.65,1.54-17.15,3.44-25.08,6.71
		c-20.32,8.38-36.06,22.6-47.95,40.85c-17.1,26.26-28.56,54.67-25.18,86.59c1.86,17.6,6.42,35.01,10.86,52.22
		c2.25,8.73,5.84,17.55,10.77,25.05c8.89,13.54,20.31,25.1,33.21,35.05c1.13,0.87,2.18,1.83,3.23,2.72c-0.3,0.46-0.36,0.68-0.46,0.7
		c-3.09,0.65-6.19,1.24-9.28,1.91c-36.55,7.94-69.94,24.04-103.24,40.29c-18.26,8.91-36.23,18.43-54.56,27.17
		c-16.16,7.71-33.07,13.3-50.93,15.65c-17.81,2.35-34.79,1.33-49.99-9.98c-7.33-5.45-15.62-9.61-23.11-14.87
		c-5.28-3.71-10.35-7.9-14.83-12.54c-15.13-15.65-22.04-35.4-26.96-56.02c-4.32-18.1-3.06-35.69,5.06-52.63
		c1.41-2.94,2.51-6.02,3.75-9.04c-0.57-0.49-1.14-0.98-1.71-1.46c-1.17,1.7-2.42,3.35-3.49,5.12c-18.83,31.15-22,63.43-4.13,95.71
		c12.31,22.25,29.14,40.97,52.17,53.16c0.55,0.29,0.96,0.86,1.43,1.29c-4.99,13.37-11.85,25.51-20.49,36.63
		c-3.37,4.34-5.79,8.81-7.54,14.24c-11.23,34.9-19.02,70.41-20.63,107.1c-0.49,11.24-0.08,22.51-0.08,33.77c0.3,0,0.59,0,0.89,0.01
		c0-4.08,0-8.16,0-12.24c1.94,10.04,2.96,20.14,4.56,30.15c3.16,19.73,6.78,39.38,9.87,59.12c0.68,4.33,0.97,9.26-0.43,13.25
		c-1.49,4.24-1.51,8.05-0.71,12.11c1.9,9.64,3.69,19.3,6,28.84c1.79,7.39,2.85,14.61-0.66,22.63c13.08-2.32,25.5-4.49,37.89-6.79
		c0.9-0.17,2.31-1.22,2.35-1.93c0.36-7.04,5.72-9.51,10.71-12.67c2.79-1.77,5.76-4.34,6.99-7.25c2.02-4.8,5.06-8.22,9.43-10.52
		c5.44-2.86,10.86-5.95,16.63-7.98c31-10.9,63.08-16.5,95.81-18.23c21.14-1.12,42.33-1.68,62.81,5.48c1.36,0.48,3.02,0.72,4.41,0.42
		c6.01-1.29,11.18-0.01,14.61,3.94c2.61-1.45,4.68-3.4,6.83-3.5c1.41-0.07,3.64,2.28,4.29,4c1.81,4.81,3.17,9.81,4.37,14.82
		c1.5,6.28-0.89,8.88-7.36,8.5c-0.63-0.04-1.41-0.11-1.88,0.21c-6.74,4.54-14.29,3.35-21.77,3.5c-32.64,0.69-65.28,1.64-97.92,2.59
		c-3.09,0.09-6.16,0.85-9.24,1.29c2.13,0.88,4.12,0.84,6.11,0.89c27.78,0.68,55.65,0.3,83.32,2.42c20.6,1.58,40.69,7.31,58.55,18.61
		c3.09,1.95,5.95,2.63,9.35,1.77c8.23-2.08,16.43-4.31,24.71-6.16C892.44,944.28,917.54,940.4,943.14,945.78z M706.55,1150.82
		c20.34-0.28,40.6-1.88,60.3-7.37c33.67-9.39,54.36-31.8,64.69-64.76c7.99-25.5,3.01-50.46-2.11-75.49
		c-0.19-0.95-0.68-1.91-1.25-2.71c-5.58-7.87-10.94-15.92-16.88-23.51c-6.51-8.33-15.5-13.02-25.75-15.14
		c-6.52-1.35-13.1-2.5-19.7-3.36c-22.9-2.98-45.87-2.33-68.85-0.95c-27.88,1.68-55.2,6.44-82.13,13.82
		c-17.34,4.76-32.02,12.77-41.19,29.1c-3.47,6.19-5.6,12.38-4.69,19.48c0.61,4.79,1.56,9.59,1.52,14.38
		c-0.03,3.24-1.59,6.44-2.32,9.69c-0.33,1.48-0.71,3.16-0.36,4.56c2.01,7.91,4.7,15.67,6.29,23.65c4.77,23.98,18.38,41.09,39.1,53.5
		C642.03,1142.95,672.97,1151.6,706.55,1150.82z M968.82,996.35c-2.63,19.59,1.39,38.72,9.76,56.86
		c12.09,26.23,31.81,44.28,60.14,51.33c25.62,6.38,51.6,4.49,77.46,0.88c33.06-4.61,62.27-17.8,87.45-39.71
		c11.58-10.08,21.92-21.35,24.89-37.05c2.69-14.22,4.43-28.62,6.4-42.97c0.19-1.35-0.88-2.9-1.44-4.33
		c-1.06-2.68-2.79-5.26-3.13-8.02c-0.59-4.77-0.44-9.64-0.41-14.46c0.04-7.13-1.98-13.53-6.82-18.8c-3.93-4.29-7.97-8.51-12.3-12.4
		c-9.06-8.14-20.74-9.59-32.03-11.38c-37.14-5.89-74.35-4.9-111.56-0.4c-19.4,2.34-38.46,6.11-56.98,12.48
		c-10.37,3.57-19.34,8.94-25.47,18.28c-9.02,13.73-17.38,27.72-15.97,45.16C968.91,993.14,968.82,994.48,968.82,996.35z
		 M553.36,483.97c0.61,5.79,1.25,14.1,2.42,22.33c3.2,22.5,12.62,42.27,26.93,59.79c1.58,1.93,3.71,4.35,6.1,1.82
		c0.86-0.91,0.14-4.4-0.97-5.89c-25.45-34.44-30.99-72.52-20.51-113.32c3.65-14.2,10.44-26.99,21.62-37.02
		c1.81-1.63,4.61-3.63,1.98-6c-1.14-1.03-5.09-0.64-6.46,0.57c-4.57,4.04-9.31,8.25-12.64,13.29
		C559.48,438.23,554.05,459.14,553.36,483.97z M1350.29,615.76c1.06,0.45,3.14,1.87,5.35,2.09c1.62,0.16,4.01-0.83,4.88-2.11
		c0.64-0.93-0.24-3.47-1.18-4.75c-1.03-1.39-2.85-2.24-4.43-3.16c-16.06-9.38-30.07-20.85-38.84-37.75
		c-0.44-0.84-1.46-1.38-2.21-2.05c6.53,16.54,17.87,29.67,29.99,44.07c-6.21-2.22-11.13-3.68-15.81-5.7
		c-17.95-7.71-34.75-16.99-45.19-34.56c-1.42-2.39-2.83-5.7-6.38-3.48c-3.15,1.98-1.66,4.96-0.38,7.56
		c0.37,0.74,0.84,1.43,1.29,2.13c15.4,23.92,39.41,33.67,65.61,39.66C1344.77,618.13,1346.96,616.71,1350.29,615.76z
		 M1238.01,587.48c1.35,2.33,2.33,4.66,3.87,6.52c4.34,5.25,8.71,10.51,13.45,15.39c14.07,14.47,27.31,29.54,36.86,47.51
		c0.92,1.73,2.26,3.32,3.7,4.66c0.69,0.65,2.28,1.08,3.03,0.72c0.72-0.35,1.33-1.9,1.21-2.83c-0.24-1.96-0.64-4.05-1.59-5.73
		c-5.41-9.5-9.98-19.73-16.78-28.15c-11.25-13.94-23.97-26.7-36.09-39.94c-0.45-0.49-0.94-1.14-1.51-1.26
		c-1.35-0.29-2.95-0.76-4.08-0.29C1239.18,584.46,1238.79,586.11,1238.01,587.48z M1321.48,634.43c0.1-0.4,0.2-0.79,0.3-1.19
		c2.65-0.24,5.45-0.04,7.91-0.85c1.84-0.6,3.25-2.5,4.86-3.82c-1.72-0.98-3.35-2.19-5.18-2.87c-1.17-0.44-2.64-0.17-3.97-0.12
		c-9.93,0.4-19.12-2.2-27.75-6.94c-4.23-2.32-8.29-4.94-12.47-7.33c-2.86-1.63-6.28-5.33-8.98-1.09c-2.53,3.98,1.71,6.33,4.59,8.02
		c6.73,3.95,13.44,8.13,20.63,11.03C1307.77,631.83,1314.77,632.77,1321.48,634.43z M1250.75,925.88c2.01,0,3.01,0.07,4-0.01
		c3.86-0.31,6.92-1.87,7.2-6.11c0.29-4.47-2.67-6.67-6.66-7.23c-2.75-0.39-5.99-0.84-8.3,0.25c-2.27,1.07-5.01,4.04-5.02,6.19
		c-0.01,2.14,2.87,4.59,4.96,6.32C1247.99,926.18,1250.11,925.8,1250.75,925.88z M532.74,996.83c3.16-0.49,5.93-0.5,8.34-1.44
		c1.58-0.61,3.32-2.38,3.73-3.96c0.35-1.36-0.73-4.24-1.81-4.6c-4.58-1.54-9.35-2.88-14.14-3.23c-1.55-0.11-4.51,2.88-4.72,4.69
		c-0.24,2.1,1.4,4.9,3.06,6.57C528.54,996.2,531.12,996.31,532.74,996.83z M534.81,856.88c0.41-0.07,0.82-0.14,1.23-0.22
		c-1.56-8.53-3.13-17.06-4.69-25.58c-0.4,0.07-0.8,0.14-1.2,0.21C531.71,839.82,533.26,848.35,534.81,856.88z"/>
	<path d="M969.55,1492.55c2.89-2.2,4.76-3.89,6.88-5.18c2.83-1.72,5.9-4.48,8.79-4.39c7.23,0.21,11.48-3.65,16.56-7.91
		c11.42-9.61,22.59-8.08,32.94,3.04c8.11,8.71,18.03,13.67,29.99,15.39c18.38,2.63,35.8-1.3,53.16-6.27
		c10.08-2.88,20.13-5.94,30.04-9.37c4.19-1.45,7.94-4.13,11.98-6.09c3.93-1.9,7.35-5.42,12.46-3.93c0.68,0.2,1.99-1,2.7-1.81
		c7.56-8.61,15.14-16.95,20.19-27.69c4.01-8.53,11.07-15.62,16.73-23.39c1.35-1.85,2.8-3.71,3.74-5.77
		c13.09-28.62,26.1-57.27,39.16-85.91c0.9-1.97,1.8-3.99,3.09-5.71c11.41-15.26,15.87-33.28,20.47-51.24
		c6.18-24.1,15.15-47.17,24.83-70.06c12.84-30.35,26.12-60.61,31.1-93.63c1.84-12.19,4.51-24.25,1.64-36.66
		c-0.58-2.52-0.32-5.34,0.03-7.96c0.76-5.57,4.82-9.63,9.99-10.45c5.15-0.82,10.52,1.74,12.48,7.08c2.04,5.56,2.9,11.55,4.56,17.27
		c0.98,3.39,2.64,6.58,3.77,9.94c1.78,5.27,5.15,10.74,4.74,15.88c-2.17,27.09,1.88,53.55,6.95,79.9
		c2.25,11.72,6.34,23.07,8.8,34.76c3.43,16.24,1.89,32.15-5.29,47.33c-2.38,5.03-5.66,8.86-11.24,10.6
		c-4.66,1.45-4.18,5.37-3.5,9.08c2.58,14.12,3.18,28.41-1.09,42.09c-3.36,10.78-2.98,21.26-1.88,32.04
		c2.42,23.62-2.82,45.03-18.46,63.37c-5.88,6.89-10.71,14.31-14.14,22.79c-2.61,6.46-5.78,12.81-9.56,18.65
		c-6.81,10.51-9.07,22.1-9.17,34.22c-0.22,28.5-8.94,54.3-23.7,78.4c-5,8.17-11.36,14.64-19.58,19.55c-2.18,1.3-4.3,3.77-5.08,6.15
		c-4.39,13.43-12.01,24.59-21.46,35.06c-7.04,7.8-13.02,16.81-18.17,26.02c-7.12,12.74-14.78,24.9-25.2,35.22
		c-1.98,1.97-3.55,4.38-5.14,6.7c-6.04,8.77-11.83,17.72-18.05,26.36c-8.07,11.2-18.77,19.28-31.27,25.03
		c-1.21,0.56-2.41,1.14-3.59,1.75c-0.43,0.22-0.8,0.57-0.99,1.54c1.7-0.5,3.41-1,5.11-1.51c0.24,0.48,0.49,0.95,0.73,1.43
		c-12.04,6.4-24.08,12.79-36.12,19.19c-0.28-0.45-0.55-0.9-0.83-1.35c0.63-0.69,1.26-1.39,2.57-2.82c-1.71,0.63-2.64,0.79-3.35,1.27
		c-8.81,5.87-18.15,10.59-28.59,12.71c-12.71,2.58-25.2,0.64-37.59-2.3c-1.29-0.31-2.56-0.75-3.83-1.16
		c-12.35-3.94-24.65-7.7-37.53-10.01c-21.63-3.89-40.64-14.4-58.69-26.72c-3.32-2.27-7.26-3.96-11.16-4.99
		c-19.4-5.13-35.56-15.25-47.31-31.49c-6.9-9.54-12.3-20.16-18.81-30.01c-2.48-3.75-5.62-7.65-9.41-9.86
		c-23.83-13.9-40.54-34.73-56.56-56.42c-8.3-11.23-17.31-21.94-26.13-33.04c-4.77,3.37-7.28,1.11-9.93-2.25
		c-13.92-17.61-28.09-35.02-41.98-52.66c-5.96-7.56-11.62-15.38-17.11-23.29c-8.73-12.57-16.73-25.68-25.89-37.92
		c-14.53-19.41-23.47-40.92-26.7-64.85c-0.44-3.23-1.34-4.94-4.86-6.33c-15.48-6.13-24.45-17.68-27.06-34.3
		c-1.3-8.27-0.62-16.31,1.58-24.23c2.21-7.94,1.33-15.51-1.83-22.92c-0.7-1.64-1.58-3.49-2.93-4.53
		c-15.78-12.17-21.77-29.31-24.8-48.04c-1.48-9.18-3.15-18.32-4.78-27.72c-7.7,5.78-11.8,4.71-15.39-3.83
		c-3.27-7.79-3.53-15.9-1.57-24.03c1.01-4.2,1.87-8.63,3.92-12.34c6.34-11.51,6.21-23.53,4.1-35.9c-1.25-7.33,0.45-14.29,3.4-20.9
		c0.28-0.62,4.41-0.65,5.31,0.35c2.17,2.4,3.91,5.42,5.05,8.47c3.64,9.81,6.93,19.75,10.49,30.06c5.58,0.09,9.46,4.02,11.07,9.23
		c2.18,7.06,3.83,14.46,4.32,21.8c0.42,6.34,2.96,10.9,6.86,15.49c4.36,5.15,8.66,10.52,11.94,16.38
		c11.94,21.36,23.3,43.04,35.19,64.42c2.63,4.73,6.51,8.78,9.83,13.13c4.93,6.48,9.28,13.54,14.96,19.28
		c8.73,8.82,8.95,20.75,13.15,31.2c1.73,4.3,4.02,8.36,5.84,12.63c1.81,4.25,3.45,8.58,4.97,12.94c1.3,3.73,1.82,7.8,3.55,11.29
		c6.65,13.5,14.38,26.38,25.01,37.18c21.89,22.23,39.98,47.22,55.68,74.14c13.24,22.71,29.05,43.55,49.67,60.23
		c5.42,4.39,11.45,8.01,17.16,12.04c3.53,2.49,7.24,2.79,11.38,1.79c9.51-2.29,16.99-7.72,22.99-15.08
		c6.2-7.6,11.7-15.78,17.79-23.49c4.31-5.46,11.77-10.03,12.92-15.95c1.31-6.7,2.84-13.01,5.47-19.26c1.05-2.49,1.48-5.49,1.29-8.19
		c-0.55-8.02,2.02-13.42,8.25-16.05c5.93-2.5,11.57-0.76,16.76,5.19C968.83,1490.99,969.06,1491.66,969.55,1492.55z M630.37,1339.56
		c-6.8,18.26,4.38,42.87,20.06,43.51c-1.35-4.91-1.93-9.92-4.08-14.13c-2.49-4.87-6.83-8.77-9.51-13.58
		C634.22,1350.64,632.67,1345.32,630.37,1339.56z M1268.5,1579.07c11.54-17.93,21.63-34.92,27.48-55.23
		c-1.07,1.19-1.49,1.52-1.72,1.94c-7.15,12.99-14.78,25.6-26.83,34.84c-0.85,0.65-1.52,2.29-1.39,3.37
		C1266.59,1568.53,1267.48,1573.04,1268.5,1579.07z M878.4,1681.02c10.82,16.47,21.07,31.59,39.38,40.52
		c-5.49-7.54-11.13-13.65-14.84-20.78C897.77,1690.82,889.07,1686.1,878.4,1681.02z M581.97,1186.83
		c-7.46,12.64-8.17,31.64-1.47,37.01c1.92-4.59,2.56-8.71-0.81-13.03c-1.27-1.62-1.26-4.23-1.84-6.39c2.17,0.55,4.34,1.11,6.52,1.62
		c0.25,0.06,0.55-0.14,1.02-0.27C584.3,1199.67,583.19,1193.56,581.97,1186.83z M613.51,1287.19c0.42-0.15,0.85-0.3,1.27-0.45
		c-4.92-12.5-9.84-25.01-14.76-37.51c-0.42,0.17-0.83,0.33-1.25,0.5C602.13,1262.83,605.53,1275.91,613.51,1287.19z"/>
	<path d="M1204.98,1386.91c0.3,0.59,1.23,1.85,1.61,3.25c0.97,3.57-0.37,5.86-4.17,6.39c-0.81,0.11-1.76,0.23-2.47-0.07
		c-10.02-4.23-21.7-3.71-30.78-10.81c-1.33-1.04-3.78-0.72-5.72-0.87c-2.13-0.16-4.34,0.2-6.39-0.26
		c-7.78-1.76-15.52-3.76-23.27-5.67c-0.81-0.2-1.75-0.81-2.38-0.57c-7.55,2.76-13.14-1.95-19.04-5.07
		c-5.79-3.06-10.91-4.34-16.75,0.52c-1.88,1.57-6.76,1.32-9.28,0c-6.68-3.48-13.76-3.45-20.84-4.11c-2.31-0.22-4.65-0.45-6.88-1.06
		c-2.91-0.8-5.47-1.93-7.56,1.77c-0.5,0.89-4.03,1.12-5.33,0.32c-6.85-4.28-14.02-7.42-22.03-8.94c-2.8-0.53-5.3-2.65-8.32-4.24
		c-2.27,4.97-6.4,4.55-10.77,3.25c-3.69-1.09-6.56-1.71-9.86,2.25c-3.59,4.33-9.56,4.12-14.97,2.61c-3.08-0.86-5.57-1.17-8.73,0.99
		c-4.76,3.26-13.92,0.05-17.99-5.88c-2.39-3.49-3.97-7.53-5.9-11.32c-4.52,5.16-9.05,10.43-13.68,15.61
		c-4.09,4.59-5.68,4.65-10.17,0.66c-4.01,6.01-6.28,6.67-12.17,3.57c0.03,0.47,0.06,0.94,0.08,1.41c-2.85,0.31-5.71,0.51-8.54,0.96
		c-1.43,0.23-3.25,0.51-4.09,1.47c-6.83,7.77-16.12,11.64-24.98,16.22c-0.58,0.3-1.38,0.75-1.88,0.57
		c-7.72-2.86-13.46,2.95-20.1,4.66c-6.92,1.78-13.55,4.65-20.43,6.61c-2.54,0.73-5.43,0.21-8.16,0.31c-2.64,0.09-5.27,0.36-7.9,0.35
		c-4.77-0.02-9.55-0.25-14.32-0.25c-1.77,0-3.57,0.28-5.32,0.63c-9.44,1.92-18.8,4.31-28.31,5.72c-7.88,1.18-15.68-0.24-22.57-4.6
		c-2.19-1.39-4.33-3.25-5.76-5.39c-3.51-5.23-0.82-10.67,5.37-10.28c8.55,0.55,15.23-2.74,21.95-7.46
		c6.5-4.56,13.8-7.96,20.49-12.28c2.14-1.38,3.5-4.02,5.12-6.15c1.79-2.36,3.19-5.08,5.24-7.17c4.42-4.5,9.16-8.7,14.14-13.37
		c-3.92-3.86-1.85-7.44,0.79-10.58c14.78-17.59,28.87-35.84,46.73-50.57c7.71-6.36,16.46-10.67,26.47-12.11
		c7.58-1.09,14.15,0.79,19.64,6.32c0.9,0.9,2.57,1.91,3.61,1.67c12.49-2.92,22.98,0.84,32.21,9.2c0.22,0.2,0.58,0.23,0.36,0.15
		c4.9-4.36,9.18-9.17,14.39-12.54c6.29-4.07,13.22-7.27,20.18-10.12c3.24-1.33,7.33-1.77,10.78-1.17
		c6.84,1.19,12.77,1.55,19.88-1.31c7.95-3.19,15.29,2.37,20.75,8.8c2.13,2.51,3.93,5.3,5.86,7.93c7.62-4.49,11.12-3.86,16.84,2.46
		c4.1,4.53,8.85,7.19,15.25,4.62c1.06-0.42,2.66-0.06,3.82,0.42c9.54,3.92,19.04,7.96,28.55,11.96c0.91,0.38,2.01,1.3,2.7,1.06
		c7.59-2.62,12.11,2.93,17.32,6.45c2.47,1.67,4.47,4.05,6.98,5.65c2.51,1.61,5.58,2.37,8.06,4.01c4.51,2.99,9.58,5.66,12.98,9.68
		c12.26,14.49,24.22,29.18,39.97,40.2c7.09,4.96,14.55,6.92,23.13,5.11c4.12-0.87,6.55-2.85,7.46-6.92
		c0.54-2.43,1.06-4.93,2.12-7.16c0.53-1.11,2.18-2.18,3.41-2.3c0.94-0.09,2.53,1.11,2.97,2.12c3.66,8.47,1.92,16.39-4.38,22.58
		C1215.92,1380.83,1210.34,1383.4,1204.98,1386.91z"/>
</g>
</svg>
